<svg xmlns="http://www.w3.org/2000/svg" viewBox="0 0 128 128">
  <rect width="128" height="128" rx="28" fill="#1d9bf0"/>
  <path d="M104 42c-3 1.5-6.5 2.5-10 3 3.5-2 6-5.5 7.5-9-3.5 2-7 3.5-11 4-3-3-7.5-5-12.5-5-9.5 0-17 7.5-17 17 0 1.5 0 2.5.5 4-14.5-0.5-27-7.5-35.5-18-1.5 2.5-2 5-2 8 0 6 3 11 7.5 14-2.5 0-5-.5-7.5-2v0.5c0 8 6 15 13.5 16.5-1.5 0.5-3 0.5-4.5 0.5-1 0-2 0-3-0.5 2 6.5 8 11.5 15.5 11.5-6 4.5-13.5 7.5-21.5 7.5-1.5 0-2.5 0-4-0.5 7.5 5 16.5 7.5 26 7.5 31.5 0 48.5-26 48.5-48.5 0-1 0-1.5 0-2.5 3.5-2.5 6-5.5 8-8.5z" fill="white"/>
</svg>

